<svg width="93" height="103" viewBox="0 0 93 103" fill="none" xmlns="http://www.w3.org/2000/svg">
    <path d="M23.8992 55.7103C22.369 56.9965 19.7452 59.2225 17.3128 61.529C15.5084 63.2399 13.6138 65.1664 11.9664 67.1381C10.3586 69.0623 8.79321 71.2552 7.86055 73.4955C7.835 73.5569 7.81082 73.6188 7.78801 73.6812C6.40572 77.466 5.58477 81.4326 5.35115 85.4549C5.2307 87.0205 5.43177 88.5944 5.94229 90.0798C6.45961 91.585 7.28342 92.9665 8.36166 94.1371C9.4399 95.3078 10.7492 96.2422 12.2069 96.8812C13.6644 97.5202 15.2385 97.8501 16.8299 97.85C16.8301 97.85 16.8302 97.85 16.8304 97.85H46.7569H76.6807C76.6811 97.85 76.6815 97.85 76.6819 97.85C78.2733 97.8503 79.8474 97.5205 81.3049 96.8816C82.7627 96.2426 84.0722 95.3081 85.1505 94.1372C86.2287 92.9663 87.0525 91.5845 87.5696 90.079C88.0797 88.5938 88.2804 87.0201 88.1597 85.4548C87.9271 81.4323 87.1064 77.4655 85.7237 73.6807C85.7008 73.6182 85.6766 73.5561 85.6509 73.4946C84.7182 71.2555 83.1528 69.0632 81.5451 67.1395C79.8977 65.1681 78.0031 63.2417 76.1987 61.5306C73.7652 59.2229 71.1418 56.9968 69.6116 55.7105C73.009 49.9476 75.3185 43.6015 76.4171 36.9885L76.418 36.9827L71.9779 36.251C76.418 36.9827 76.4184 36.9806 76.4187 36.9784L76.4195 36.9738L76.4211 36.9641L76.4246 36.9419L76.4329 36.8873C76.439 36.8463 76.4462 36.7963 76.454 36.7374C76.4696 36.6197 76.4879 36.4666 76.5061 36.2804C76.5426 35.9083 76.579 35.4023 76.5925 34.7812C76.6196 33.5407 76.5561 31.8275 76.2147 29.7958C75.5289 25.7143 73.7219 20.364 69.3334 15.0512C64.755 9.50862 59.0356 6.96649 54.5871 5.80902C52.3586 5.22918 50.405 4.98379 48.9898 4.88313C48.2797 4.83262 47.6978 4.81804 47.2757 4.817C47.0644 4.81648 46.8924 4.81936 46.7637 4.82288C46.761 4.82295 46.7583 4.82303 46.7557 4.8231C46.7531 4.82303 46.7504 4.82295 46.7478 4.82288C46.619 4.81937 46.4471 4.81651 46.2358 4.81704C45.8136 4.81811 45.2316 4.83274 44.5215 4.88329C43.1062 4.98403 41.1525 5.22952 38.924 5.80941C34.4754 6.96697 28.7557 9.50907 24.1783 15.0514C19.7908 20.3638 17.984 25.7139 17.2979 29.7952C16.9564 31.8268 16.8927 33.5399 16.9196 34.7803C16.933 35.4015 16.9693 35.9074 17.0057 36.2795C17.0239 36.4657 17.0422 36.6187 17.0578 36.7364C17.0656 36.7953 17.0727 36.8453 17.0788 36.8863L17.0871 36.9409L17.0906 36.9631L17.0922 36.9728L17.0929 36.9774C17.0933 36.9796 17.0936 36.9817 21.5292 36.2518L17.0936 36.9817L17.0947 36.9882C18.193 43.6012 20.5022 49.9474 23.8992 55.7103ZM67.7678 58.4759C67.7679 58.4758 67.768 58.4757 67.7681 58.4756L67.7679 58.4758C67.7678 58.4759 67.7678 58.4759 67.7678 58.4759Z" fill="#231F20" stroke="white" stroke-width="9" stroke-miterlimit="10" stroke-linejoin="round"/>
    <path d="M46.7569 93.35H9.60992C9.60992 92.302 9.30993 81.721 12.0099 75.225C14.7099 68.729 26.3099 59.649 28.1449 58.008C29.9799 56.367 28.9449 55.319 28.9449 55.319C25.1832 49.5431 22.6582 43.0508 21.5289 36.251C21.5289 36.251 20.0289 27.136 27.6429 17.917C35.2569 8.69801 46.7509 9.32601 46.7509 9.32601C46.7509 9.32601 58.2429 8.69701 65.8589 17.917C73.4749 27.137 71.9729 36.251 71.9729 36.251C70.8433 43.0508 68.318 49.5431 64.5559 55.319C64.5559 55.319 63.5209 56.367 65.3559 58.008C67.1909 59.649 78.7859 68.729 81.4919 75.225C84.1979 81.721 83.8919 92.302 83.8919 93.35H46.7569Z" fill="#38261A"/>
</svg>
